<svg width="73" height="72" viewBox="0 0 73 72" fill="none" xmlns="http://www.w3.org/2000/svg">
<path d="M31.9852 0L63.1828 18L31.9852 36L0.799805 18L31.9852 0Z" fill="#F9C989"/>
<path d="M63.1829 54V18L31.9852 36V72L63.1829 54Z" fill="#DDA866"/>
<path d="M0.799805 54V18L31.9852 36V72L0.799805 54Z" fill="#BA7B46"/>
<path d="M14.5718 10.057L45.7449 28.0693L49.4232 25.943L18.25 7.94299L14.5718 10.0692V10.057Z" fill="#FCEAD1"/>
<path d="M49.4235 25.943V31.2586L48.9712 32.053L48.507 31.7964L48.0425 32.5906L47.5905 32.334L47.126 33.1161L46.6617 32.8595L46.2095 33.6415L45.7452 33.3849V28.057L49.4235 25.943Z" fill="#EDD9BE"/>
<path d="M12.0788 33.6415L8.97485 36.7332L10.7222 37.7475V46.5214L13.4228 48.0856V39.3116L15.1705 40.3259L12.0665 33.6537L12.0788 33.6415ZM23.8098 45.2994L20.7061 38.6273L17.6022 41.719L19.3496 42.7332V51.5072L22.0502 53.0713V44.2974L23.7978 45.3116L23.8098 45.2994ZM23.8098 55.8452L8.97485 47.279V49.6253L23.8098 58.1915V55.8452Z" fill="#9B5C2C"/>
<path fill-rule="evenodd" clip-rule="evenodd" d="M62.0467 46.3874C55.4433 45.8091 49.6232 50.6942 49.0465 57.2959C48.4681 63.8977 53.3533 69.7178 59.955 70.2945C66.5568 70.8728 72.3769 65.9877 72.9536 59.3876C73.5319 52.7842 68.6468 46.9641 62.0467 46.3874Z" fill="#3ABA95"/>
<path fill-rule="evenodd" clip-rule="evenodd" d="M67.7655 55.1525L59.7721 64.6326C59.4387 65.0276 58.8453 65.0659 58.4636 64.7176L53.8236 60.4725C53.4536 60.1342 53.4269 59.5592 53.7669 59.1892L54.8452 58.0092C55.1836 57.6392 55.7586 57.6125 56.1286 57.9525L58.1454 59.7959C58.5271 60.1442 59.1204 60.1059 59.4537 59.7109L65.1538 52.9508C65.4772 52.5674 66.0504 52.5191 66.4338 52.8424L67.6555 53.8724C68.0388 54.1958 68.0872 54.7691 67.7639 55.1525H67.7655Z" fill="white"/>
</svg>
